<?xml version="1.0" encoding="utf-8"?>
<!-- Generator: Adobe Illustrator 27.4.0, SVG Export Plug-In . SVG Version: 6.00 Build 0)  -->
<svg version="1.1" id="Layer_1" xmlns="http://www.w3.org/2000/svg" xmlns:xlink="http://www.w3.org/1999/xlink" x="0px" y="0px"
	 viewBox="0 0 319.19 147.47" style="enable-background:new 0 0 319.19 147.47;" xml:space="preserve">
<style type="text/css">
	.st0{fill:#F37324;}
	.st1{fill:#F36D21;}
</style>
<g>
	<path class="st0" d="M85.8,33.78c-2.66-11.65-11.18-17.51-22.36-17.51c-16.65,0-26.39,13.52-26.39,29.24
		c0,15.71,8.57,29.24,26.39,29.24c11.1,0,18.53-5.39,22.98-16.57l-9.54-4.38c-2.03,6.49-6.18,11.26-13.45,11.26
		c-11.1,0-15.71-9.85-15.71-19.55c0-9.69,4.61-19.54,15.71-19.54c6.33,0,11.41,4.22,12.27,10.4L85.8,33.78L85.8,33.78z
		 M123.13,45.82c0-11.26-8.52-12.98-17.04-12.98c-8.68,0-16.89,3.6-16.89,12.9l9.54,0.39c0-4.3,1.8-5.94,7.35-5.94
		c4.14,0,7.51,1.09,7.51,5v1.17c-2.42,0.86-6.88,1.64-10.32,2.35l-3.99,0.78c-5.86,1.17-12.04,4.61-12.04,12.35
		c0,7.66,5.94,12.43,13.45,12.43c4.93,0,9.23-1.56,12.9-4.53c0,1.02,0.31,2.66,0.94,3.6h10.08c-0.55-0.86-1.48-2.58-1.48-6.65V45.82
		L123.13,45.82z M113.59,59.19c0,5.08-5.71,7.27-10.16,7.27c-3.44,0-6.18-1.95-6.18-4.93c0-3.75,2.97-4.77,6.57-5.47l5.24-1.09
		c1.72-0.31,3.28-0.78,4.54-1.41V59.19L113.59,59.19z M129.95,73.34h9.54V16.11h-9.54V73.34L129.95,73.34z M145.94,25.17v39.11
		c0,6.02,2.66,9.54,10.48,9.54c2.97,0,5.32-0.47,7.58-0.94v-7.82c-1.41,0.16-2.89,0.47-4.22,0.47c-3.67,0-4.3-1.72-4.3-4.85V40.66
		h8.52v-6.88h-8.52V15.62L145.94,25.17L145.94,25.17z M203.74,55.83c0-14.15-5.79-22.98-19-22.98c-12.82,0-20.25,8.91-20.25,20.72
		c0,11.81,7.43,20.72,20.25,20.72c10.79,0,16.5-5.16,19.47-9.69l-8.05-4.69c-0.94,1.33-3.91,5.63-11.41,5.63
		c-5.16,0-10.09-3.83-10.24-9.69H203.74L203.74,55.83z M174.5,48.48c1.02-4.22,4.69-7.82,10.24-7.82c6.41,0,8.99,5.71,8.99,7.82
		H174.5L174.5,48.48z M243.89,44.1c-2.42-5.94-7.11-11.26-16.73-11.26c-12.82,0-20.25,8.91-20.25,20.72
		c0,11.81,7.43,20.72,19.54,20.72c10.71,0,15.25-6.33,17.9-12.12l-8.13-4.3c-1.48,3.6-3.91,7.66-9.62,7.66
		c-6.65,0-9.69-5.78-9.69-11.96c0-6.18,3.44-11.96,10.24-11.96c3.75,0,7.12,2.42,8.37,6.33L243.89,44.1L243.89,44.1z M246.87,73.34
		h9.54V53.01c0-4.85,2.19-10.95,9.38-10.95c4.85,0,7.04,2.35,7.04,7.82v23.45h9.54V47.15c0-11.49-7.74-14.31-14.46-14.31
		c-5.4,0-9.23,2.11-11.34,4.85h-0.16V16.11h-9.54V73.34L246.87,73.34z"/>
</g>
<g>
	<g>
		<path class="st1" d="M15.35,93.37h11.16c8.04,0,13.5,2.7,13.5,9.6c0,3.9-2.22,7.38-6.9,8.58v0.24c5.76,0.9,9.12,4.02,9.12,9.42
			c0,7.74-6,11.52-14.82,11.52H15.35V93.37z M25.67,109.93c6.72,0,9.42-2.16,9.42-6.54c0-4.26-3.12-5.82-9.18-5.82h-5.58v12.36
			H25.67z M26.69,128.53c6.72,0,10.62-2.22,10.62-7.56c0-4.86-3.72-6.84-10.62-6.84h-6.36v14.4H26.69z"/>
		<path class="st1" d="M52.25,93.37h24.36v4.26H57.29v12.3h16.32v4.26H57.29v14.28h19.92v4.26H52.25V93.37z"/>
		<path class="st1" d="M107.03,90.13h4.44l-19.68,52.2h-4.44L107.03,90.13z"/>
		<path class="st1" d="M123.35,93.37h11.16c8.04,0,13.5,2.7,13.5,9.6c0,3.9-2.22,7.38-6.9,8.58v0.24c5.76,0.9,9.12,4.02,9.12,9.42
			c0,7.74-6,11.52-14.82,11.52h-12.06V93.37z M133.67,109.93c6.72,0,9.42-2.16,9.42-6.54c0-4.26-3.12-5.82-9.18-5.82h-5.58v12.36
			H133.67z M134.69,128.53c6.72,0,10.62-2.22,10.62-7.56c0-4.86-3.72-6.84-10.62-6.84h-6.36v14.4H134.69z"/>
		<path class="st1" d="M172.3,107.59h-13.5v-4.02h18.48v29.16h-4.98V107.59z M170.32,93.61c0-2.28,1.68-3.84,3.96-3.84
			c2.28,0,3.96,1.56,3.96,3.84c0,2.34-1.68,3.84-3.96,3.84C172,97.45,170.32,95.95,170.32,93.61z"/>
		<path class="st1" d="M206.38,129.79c12.96-11.46,20.04-18.18,20.04-24.54c0-4.38-2.64-7.44-8.28-7.44c-3.6,0-6.72,2.04-9.18,4.56
			l-2.88-2.82c3.48-3.48,7.26-5.82,12.66-5.82c7.68,0,12.48,4.5,12.48,11.28c0,7.2-7.2,14.34-17.58,23.76
			c2.4-0.18,4.86-0.3,7.14-0.3h12.54v4.26h-26.94V129.79z"/>
		<path class="st1" d="M242.26,113.47c0-12.84,5.22-19.74,13.74-19.74s13.74,6.9,13.74,19.74c0,12.72-5.22,19.98-13.74,19.98
			S242.26,126.19,242.26,113.47z M265.12,113.47c0-10.98-3.78-15.72-9.12-15.72s-9.12,4.74-9.12,15.72s3.78,15.96,9.12,15.96
			S265.12,124.45,265.12,113.47z M252.28,113.05c0-2.46,1.74-3.96,3.72-3.96c1.98,0,3.72,1.5,3.72,3.96c0,2.52-1.74,4.02-3.72,4.02
			C254.02,117.07,252.28,115.57,252.28,113.05z"/>
		<path class="st1" d="M277.36,128.23l2.46-3.3c2.58,2.28,5.7,4.38,10.8,4.38c5.34,0,9.66-3.36,9.66-8.7c0-5.28-3.72-8.34-9.36-8.34
			c-3.18,0-5.1,0.78-7.8,2.28l-2.64-1.68l1.26-18.42h21.66v4.32h-17.28l-1.02,11.28c2.22-0.96,4.2-1.56,7.08-1.56
			c7.32,0,13.14,3.72,13.14,12c0,8.28-6.84,12.96-14.16,12.96C284.32,133.45,280.3,130.87,277.36,128.23z"/>
	</g>
</g>
</svg>
